Simulation
nRows=24
nColumns=15
endheader
time  TH_x TH_y TH_z SC_y  SC_z  SC_x  AC_y  AC_z  AC_x  GH_y  GH_z  GH_yy  EL_x  PS_y
1.15  0.000000  0.000000  0.000000  -32.32549909075499  6.971030746367684  16.279927394267144  73.6576284926199  -3.879233897093895  5.09175127675125  64.22190192487459  42.28540875434488  -74.02256069239746  29.21660246416805  0.000000
1.173  0.000000  0.000000  0.000000  -32.320783512184974  6.973182274086105  16.30223174026622  73.71211757957512  -3.917566389911378  5.1380150426371936  64.29708128665015  42.220471840604404  -73.98763778482058  29.259596633033567  0.000000
1.196  0.000000  0.000000  0.000000  -32.320456437537516  6.979487859955488  16.32503297095965  73.74661026865924  -3.941601294154731  5.16735612854071  64.3391649662542  42.173479899142826  -73.94447172948193  29.28262025411362  0.000000
1.219  0.000000  0.000000  0.000000  -32.32598734988393  6.990192852760853  16.34943842441885  73.76247484282464  -3.951162080336977  5.179698007573985  64.34736252648102  42.14448644048656  -73.891525613991  29.285111566611736  0.000000
1.242  0.000000  0.000000  0.000000  -32.33594027080665  7.005050077625001  16.374586447037817  73.75843260678604  -3.946559345986742  5.175154831074174  64.32089621598442  42.13343912726541  -73.82729696457014  29.26650208295269  0.000000
1.265  0.000000  0.000000  0.000000  -32.351895318698475  7.024276485162136  16.40150857910484  73.73608734313817  -3.9277654006873908  5.153990499140389  64.259651886318  42.140362561503245  -73.74999412835672  29.22646914235414  0.000000
1.288  0.000000  0.000000  0.000000  -32.37251401828522  7.047732967022147  16.429234409482177  73.69454824977313  -3.8952762442462108  5.116534819532179  64.16344625482414  42.16543989842139  -73.65794288335294  29.164597449703592  0.000000
1.311  0.000000  0.000000  0.000000  -32.398940262199524  7.0746333098491965  16.459218531088094  73.63522588120236  -3.849393253585395  5.062636540047446  64.03261011323077  42.208370118378504  -73.54878084691636  29.081043093548658  0.000000
1.334  0.000000  0.000000  0.000000  -32.42978943240643  7.104598134032827  16.491360750378945  73.55758455934055  -3.791299139189814  4.993003493665302  63.867469492680854  42.26851430252854  -73.42027433468492  28.975940308553056  0.000000
1.357  0.000000  0.000000  0.000000  -32.46668403931964  7.138703010185822  16.525701387228573  73.46454023766222  -3.7216340170223003  4.909781306725549  63.66815240104843  42.34611705464662  -73.27067636396428  28.849106413666014  0.000000
1.38  0.000000  0.000000  0.000000  -32.508408597617  7.176383922524676  16.56214086667692  73.35620525644053  -3.6408191763314854  4.814050420502223  63.43596038394465  42.43972464478573  -73.09765715728129  28.701248631824313  0.000000
1.403  0.000000  0.000000  0.000000  -32.55612107588044  7.217788824880784  16.601557554274073  73.23529284800675  -3.5500795936990763  4.7074706447519565  63.17122787206023  42.549111124121495  -72.89887324507275  28.5327665888647  0.000000
1.426  0.000000  0.000000  0.000000  -32.60868334271392  7.262461925964378  16.64370682856496  73.10232423326649  -3.4500193599154305  4.591191645894296  62.87540131131339  42.67329523351676  -72.67202185122376  28.34441812793277  0.000000
1.449  0.000000  0.000000  0.000000  -32.66749136243704  7.310451056816339  16.68973697254723  72.96016781050055  -3.3418516897987725  4.467006124705804  62.54921825471775  42.81178406225922  -72.41451470575208  28.137115707841676  0.000000
1.472  0.000000  0.000000  0.000000  -32.731677259935005  7.361068959149073  16.739396240637095  72.80957137019514  -3.226249276849739  4.336068828375498  62.194137894913545  42.96383665282041  -72.12397345633299  27.91190638661732  0.000000
1.4949999999999999  0.000000  0.000000  0.000000  -32.802970721200886  7.4143249462281045  16.79386004484797  72.65377886110609  -3.1038544670364896  4.200225839443319  61.81092151344693  43.12889393101422  -71.79758159726394  27.67004287253135  0.000000
1.518  0.000000  0.000000  0.000000  -32.88016714204369  7.469652701906741  16.85224756272777  72.4937610705734  -2.974239484816224  4.0609524582750876  61.40043470762734  43.30612309992472  -71.43283365172192  27.412579366079257  0.000000
1.541  0.000000  0.000000  0.000000  -32.96493491649742  7.527096057344606  16.915768112611172  72.3325603064196  -2.8376523884846625  3.919748699674464  60.96334685151521  43.49502259875153  -71.02686709384098  27.14104366870257  0.000000
1.564  0.000000  0.000000  0.000000  -33.05618919196168  7.585850811766754  16.98490309431471  72.17052897520738  -2.695345120804977  3.777249532695192  60.50166222911397  43.69488718831569  -70.57773800980081  26.857229007890588  0.000000
1.587  0.000000  0.000000  0.000000  -33.15377447665341  7.645508574871618  17.060866207285123  72.01057830182089  -2.5491632431268183  3.6345306654887413  60.01697163233833  43.9057021653599  -70.0846682656888  26.563030669521822  0.000000
1.6099999999999999  0.000000  0.000000  0.000000  -33.25453159721109  7.705090069922678  17.14278132363841  71.8531228269862  -2.4002725779941714  3.49258253491103  59.51182385868553  44.12698468003843  -69.54700615287464  26.260220738886485  0.000000
1.633  0.000000  0.000000  0.000000  -33.35860119057697  7.764745327276755  17.23147516672399  71.70100769895764  -2.2500005502759977  3.3527480158072964  58.98804090938572  44.35873185938144  -68.96428856258467  25.95108012059162  0.000000
1.656  0.000000  0.000000  0.000000  -33.46461355364842  7.823751083914153  17.326323520158734  71.55443309986231  -2.099253426054327  3.2161418385101355  58.44749029609776  44.600501962440696  -68.33580349696162  25.637940774023985  0.000000
1.679  0.000000  0.000000  0.000000  -33.573809894135856  7.881830826871059  17.428412429312882  71.41628027004192  -1.9487399630395101  3.083436019738129  57.89068023471789  44.85251832140996  -67.66077484479273  25.32317610460117  0.000000
